<?xml version="1.0" encoding="UTF-8"?>
<svg id="Layer_2" xmlns="http://www.w3.org/2000/svg" version="1.1" viewBox="0 0 995.3955 161.6777">
  <!-- Generator: Adobe Illustrator 30.1.0, SVG Export Plug-In . SVG Version: 2.1.1 Build 136)  -->
  <defs>
    <style>
      .st0 {
        fill: #fff;
      }
    </style>
  </defs>
  <g id="Layer_1">
    <g>
      <path class="st0" d="M51.4722,10.0996h-20.1992v53.0664h-10.9854V10.0996H0V1.1523h51.4722v8.9473Z"/>
      <path class="st0" d="M98.5122,35.9688h-27.375v18.3379h29.8555v8.8594h-40.8413V1.1523h40.2212v8.8594h-29.2354v17.1855h27.375v8.7715Z"/>
      <path class="st0" d="M112.5962,1.1523h14.7065l27.2866,49.6113h.0884V1.1523h10.0996v62.0137h-14.7065l-27.2861-49.6113h-.0889v49.6113h-10.0996V1.1523Z"/>
      <path class="st0" d="M258.8203,10.0996h-20.1992v53.0664h-10.9854V10.0996h-20.2876V1.1523h51.4722v8.9473Z"/>
      <path class="st0" d="M306.835,63.166v-27.1094h-28.2612v27.1094h-11.0742V1.1523h11.0742v25.8691h28.2612V1.1523h11.0737v62.0137h-11.0737Z"/>
      <path class="st0" d="M358.3042,64.2305c-18.7817,0-28.8809-13.2012-28.8809-32.0723,0-18.957,10.3652-32.1582,28.8809-32.1582,18.8701,0,28.8813,13.2012,28.8813,32.1582,0,18.8711-10.3652,32.0723-28.8813,32.0723ZM375.7568,32.1582c0-13.2871-5.5811-23.2988-17.4526-23.2988s-17.4526,10.0117-17.4526,23.2988c0,13.2012,5.5815,23.2129,17.4526,23.2129s17.4526-10.0117,17.4526-23.2129Z"/>
      <path class="st0" d="M448.6655,1.1523v38.3594c0,15.416-8.7705,24.7188-25.3374,24.7188-16.8325,0-25.5146-9.125-25.5146-24.6289V1.1523h11.1626v38.2715c0,9.2129,4.2524,15.8574,14.2632,15.8574,10.1885,0,14.5293-6.7324,14.5293-15.9453V1.1523h10.897Z"/>
      <path class="st0" d="M505.7168,18.7812h-11.1626c-.7974-6.9102-5.3159-10.1875-11.8716-10.1875-6.4673,0-11.4282,3.3672-11.4282,8.416,0,5.3164,4.6953,7.1758,10.8965,8.8594l7.0874,1.9492c9.2139,2.4805,17.9844,6.0234,17.9844,17.4531,0,12.9336-11.3398,18.959-23.8311,18.959-15.061,0-24.2744-7.2656-24.8945-20.4648h11.251c1.1519,7.9727,5.6699,11.7812,14.0864,11.7812,7.4419,0,12.1372-3.3652,12.1372-8.9473,0-5.0488-3.5439-7.0879-10.5425-9.0371l-7.8848-2.125c-9.3911-2.5703-17.4526-6.2012-17.4526-17.4531,0-11.6055,10.5425-17.9844,22.6797-17.9844,13.7314,0,22.4136,6.9102,22.9453,18.7812Z"/>
      <path class="st0" d="M555.1489,47.752h-26.8438l-5.7583,15.4141h-11.0742l24.54-62.0137h12.3145l24.2744,62.0137h-11.6943l-5.7583-15.4141ZM552.314,39.3359l-10.5425-28.2617h-.0889l-10.5425,28.2617h21.1738Z"/>
      <path class="st0" d="M580.749,1.1523h14.7065l27.2866,49.6113h.0884V1.1523h10.0996v62.0137h-14.7065l-27.2861-49.6113h-.0889v49.6113h-10.0996V1.1523Z"/>
      <path class="st0" d="M669.1616,63.166h-21.5283V1.1523h21.5283c19.9331,0,30.7412,11.6055,30.7412,31.0059s-10.8081,31.0078-30.7412,31.0078ZM668.8071,54.3066c12.9346,0,19.7559-8.3262,19.7559-22.1484s-6.7329-22.1465-19.7559-22.1465h-10.2769v44.2949h10.2769Z"/>
      <path class="st0" d="M756.3828,63.166h-11.0742V1.1523h11.0742v62.0137Z"/>
      <path class="st0" d="M792.6162,63.166h-21.5283V1.1523h21.5283c19.9331,0,30.7412,11.6055,30.7412,31.0059s-10.8081,31.0078-30.7412,31.0078ZM792.2617,54.3066c12.9346,0,19.7559-8.3262,19.7559-22.1484s-6.7329-22.1465-19.7559-22.1465h-10.2769v44.2949h10.2769Z"/>
      <path class="st0" d="M873.2324,35.9688h-27.375v18.3379h29.8555v8.8594h-40.8413V1.1523h40.2212v8.8594h-29.2354v17.1855h27.375v8.7715Z"/>
      <path class="st0" d="M925.2329,47.752h-26.8438l-5.7583,15.4141h-11.0742l24.54-62.0137h12.3145l24.2744,62.0137h-11.6943l-5.7583-15.4141ZM922.3979,39.3359l-10.5425-28.2617h-.0889l-10.5425,28.2617h21.1738Z"/>
      <path class="st0" d="M993.8892,18.7812h-11.1626c-.7974-6.9102-5.3159-10.1875-11.8716-10.1875-6.4673,0-11.4282,3.3672-11.4282,8.416,0,5.3164,4.6953,7.1758,10.8965,8.8594l7.0874,1.9492c9.2139,2.4805,17.9844,6.0234,17.9844,17.4531,0,12.9336-11.3398,18.959-23.8311,18.959-15.061,0-24.2744-7.2656-24.8945-20.4648h11.251c1.1519,7.9727,5.6699,11.7812,14.0864,11.7812,7.4414,0,12.1372-3.3652,12.1372-8.9473,0-5.0488-3.5439-7.0879-10.5425-9.0371l-7.8848-2.125c-9.3911-2.5703-17.4531-6.2012-17.4531-17.4531,0-11.6055,10.543-17.9844,22.6797-17.9844,13.7319,0,22.4141,6.9102,22.9458,18.7812Z"/>
      <path class="st0" d="M51.4722,107.5469h-20.1992v53.0664h-10.9854v-53.0664H0v-8.9473h51.4722v8.9473Z"/>
      <path class="st0" d="M74.1484,160.6133l-17.3643-62.0137h11.0742l13.1118,49.9648h.0884l13.2891-49.9648h12.7573l13.1113,49.9648h.1772l13.1118-49.9648h10.4541l-17.3643,62.0137h-12.6689l-13.3774-50.1426h-.0884l-13.4663,50.1426h-12.8457Z"/>
      <path class="st0" d="M190.9097,133.416h-27.375v18.3379h29.8555v8.8594h-40.8413v-62.0137h40.2212v8.8594h-29.2354v17.1855h27.375v8.7715Z"/>
      <path class="st0" d="M204.9932,98.5996h14.7065l27.2866,49.6113h.0884v-49.6113h10.0996v62.0137h-14.7065l-27.2861-49.6113h-.0889v49.6113h-10.0996v-62.0137Z"/>
      <path class="st0" d="M317.3257,107.5469h-20.1992v53.0664h-10.9854v-53.0664h-20.2876v-8.9473h51.4722v8.9473Z"/>
      <path class="st0" d="M334.0669,98.5996l16.8325,28.6152h.0889l16.5664-28.6152h11.6943l-23.2998,38.0059v24.0078h-10.897v-24.0078l-23.2109-38.0059h12.2256Z"/>
      <path class="st0" d="M378.0962,133.0605h27.375v8.2402h-27.375v-8.2402Z"/>
      <path class="st0" d="M454.6382,133.9473h-25.6914v26.666h-10.9858v-62.0137h38.4492v8.8594h-27.4634v17.7168h25.6914v8.7715Z"/>
      <path class="st0" d="M492.6426,161.6777c-18.7817,0-28.8809-13.2012-28.8809-32.0723,0-18.957,10.3652-32.1582,28.8809-32.1582,18.8701,0,28.8813,13.2012,28.8813,32.1582,0,18.8711-10.3652,32.0723-28.8813,32.0723ZM510.0952,129.6055c0-13.2871-5.5811-23.2988-17.4526-23.2988s-17.4526,10.0117-17.4526,23.2988c0,13.2012,5.5815,23.2129,17.4526,23.2129s17.4526-10.0117,17.4526-23.2129Z"/>
      <path class="st0" d="M583.0039,98.5996v38.3594c0,15.416-8.7705,24.7188-25.3374,24.7188-16.8325,0-25.5146-9.125-25.5146-24.6289v-38.4492h11.1626v38.2715c0,9.2129,4.2524,15.8574,14.2637,15.8574,10.188,0,14.5288-6.7324,14.5288-15.9453v-38.1836h10.897Z"/>
      <path class="st0" d="M631.4609,143.8691c-1.5059-6.7324-5.9355-9.125-13.3774-9.125h-10.4536v25.8691h-10.8086v-62.0137h25.6035c12.7573,0,21.7051,4.4297,21.7051,16.832,0,7.4414-5.1382,13.5547-13.2891,15.2383v.0879c6.7334.709,9.7451,4.6953,11.1626,11.0742l4.4297,18.7812h-11.3398l-3.6323-16.7441ZM620.4756,126.3281c7.4419,0,12.5801-3.0996,12.5801-9.7441,0-7.0879-5.3154-9.3906-12.5801-9.3906h-12.8457v19.1348h12.8457Z"/>
      <path class="st0" d="M734.3252,160.6133v-27.1094h-28.2612v27.1094h-11.0742v-62.0137h11.0742v25.8691h28.2612v-25.8691h11.0737v62.0137h-11.0737Z"/>
      <path class="st0" d="M785.7939,161.6777c-18.7817,0-28.8809-13.2012-28.8809-32.0723,0-18.957,10.3652-32.1582,28.8809-32.1582,18.8701,0,28.8813,13.2012,28.8813,32.1582,0,18.8711-10.3652,32.0723-28.8813,32.0723ZM803.2466,129.6055c0-13.2871-5.5811-23.2988-17.4526-23.2988s-17.4526,10.0117-17.4526,23.2988c0,13.2012,5.5815,23.2129,17.4526,23.2129s17.4526-10.0117,17.4526-23.2129Z"/>
      <path class="st0" d="M876.1553,98.5996v38.3594c0,15.416-8.7705,24.7188-25.3374,24.7188-16.8325,0-25.5146-9.125-25.5146-24.6289v-38.4492h11.1626v38.2715c0,9.2129,4.2524,15.8574,14.2637,15.8574,10.188,0,14.5288-6.7324,14.5288-15.9453v-38.1836h10.897Z"/>
      <path class="st0" d="M924.6128,143.8691c-1.5059-6.7324-5.9355-9.125-13.3774-9.125h-10.4536v25.8691h-10.8086v-62.0137h25.6035c12.7573,0,21.7051,4.4297,21.7051,16.832,0,7.4414-5.1382,13.5547-13.2891,15.2383v.0879c6.7334.709,9.7451,4.6953,11.1626,11.0742l4.4297,18.7812h-11.3398l-3.6323-16.7441ZM913.6274,126.3281c7.4419,0,12.5801-3.0996,12.5801-9.7441,0-7.0879-5.3154-9.3906-12.5801-9.3906h-12.8457v19.1348h12.8457Z"/>
      <path class="st0" d="M993.8896,116.2285h-11.1626c-.7974-6.9102-5.3159-10.1875-11.8716-10.1875-6.4673,0-11.4282,3.3672-11.4282,8.416,0,5.3164,4.6953,7.1758,10.8965,8.8594l7.0874,1.9492c9.2139,2.4805,17.9844,6.0234,17.9844,17.4531,0,12.9336-11.3398,18.959-23.8311,18.959-15.061,0-24.2744-7.2656-24.8945-20.4648h11.251c1.1519,7.9727,5.6699,11.7812,14.0864,11.7812,7.4419,0,12.1372-3.3652,12.1372-8.9473,0-5.0488-3.5439-7.0879-10.5425-9.0371l-7.8848-2.125c-9.3911-2.5703-17.4526-6.2012-17.4526-17.4531,0-11.6055,10.5425-17.9844,22.6797-17.9844,13.7314,0,22.4136,6.9102,22.9453,18.7812Z"/>
    </g>
  </g>
</svg>