<?xml version="1.0" encoding="UTF-8"?>
<svg id="a" data-name="Layer 1" xmlns="http://www.w3.org/2000/svg" width="2000" height="324.849" viewBox="0 0 2000 324.849">
  <path d="M103.4214,20.2907h-40.5853v106.6256h-22.0723V20.2907H0V2.3134h103.4214v17.9773Z" style="fill: #fff;"/>
  <path d="M197.9366,72.2682h-55.0032v36.8474h59.9871v17.8007h-82.0594V2.3134h80.8134v17.8007h-58.7411v34.532h55.0032v17.6221Z" style="fill: #fff;"/>
  <path d="M226.2348,2.3134h29.5481l54.8266,99.6815h.1766V2.3134h20.2926v124.6029h-29.5481l-54.8247-99.6815h-.1786v99.6815h-20.2926V2.3134Z" style="fill: #fff;"/>
  <path d="M520.0346,20.2907h-40.5853v106.6256h-22.0704V20.2907h-40.7638V2.3134h103.4195v17.9773Z" style="fill: #fff;"/>
  <path d="M616.51,126.9163v-54.4695h-56.7848v54.4695h-22.2509V2.3134h22.2509v51.9776h56.7848V2.3134h22.2489v124.6029h-22.2489Z" style="fill: #fff;"/>
  <path d="M719.9236,129.0531c-37.7362,0-58.0289-26.5225-58.0289-64.4392,0-38.0914,20.8263-64.6139,58.0289-64.6139,37.9148,0,58.0289,26.5225,58.0289,64.6139,0,37.9167-20.8263,64.4392-58.0289,64.4392ZM754.9912,64.6139c0-26.6991-11.2157-46.8151-35.0677-46.8151s-35.0677,20.116-35.0677,46.8151c0,26.5244,11.2157,46.6385,35.0677,46.6385s35.0677-20.1141,35.0677-46.6385Z" style="fill: #fff;"/>
  <path d="M901.482,2.3134v77.0755c0,30.9727-17.6221,49.6642-50.9101,49.6642-33.8198,0-51.2633-18.3344-51.2633-49.4856V2.3134h22.4275v76.897c0,18.513,8.5432,31.8635,28.6593,31.8635,20.4692,0,29.193-13.5291,29.193-32.0401V2.3134h21.8938Z" style="fill: #fff;"/>
  <path d="M1016.1113,37.7362h-22.4275c-1.6011-13.8842-10.682-20.4712-23.852-20.4712-12.9954,0-22.9631,6.7655-22.9631,16.9118,0,10.68,9.4341,14.4179,21.8938,17.7987l14.2394,3.9165c18.5149,4.9839,36.1351,12.1046,36.1351,35.0677,0,25.9888-22.7846,38.0933-47.8806,38.0933-30.2624,0-48.7753-14.5965-50.0193-41.119h22.6041c2.3153,16.0191,11.3923,23.6734,28.3041,23.6734,14.9536,0,24.3877-6.7636,24.3877-17.9773,0-10.1463-7.1226-14.2413-21.1835-18.1578l-15.8425-4.2716c-18.8681-5.1624-35.0677-12.4597-35.0677-35.0677,0-23.3183,21.1835-36.1331,45.5692-36.1331,27.5919,0,45.0354,13.8842,46.1029,37.7362Z" style="fill: #fff;"/>
  <path d="M1115.4337,95.9436h-53.9358l-11.5708,30.9727h-22.2509l49.309-124.6029h24.7428l48.7714,124.6029h-23.4949l-11.5708-30.9727ZM1109.7376,79.0338l-21.1835-56.7848h-.1766l-21.1835,56.7848h42.5435Z" style="fill: #fff;"/>
  <path d="M1166.8717,2.3134h29.5481l54.8247,99.6815h.1786V2.3134h20.2926v124.6029h-29.5481l-54.8266-99.6815h-.1766v99.6815h-20.2926V2.3134Z" style="fill: #fff;"/>
  <path d="M1344.5137,126.9163h-43.2558V2.3134h43.2558c40.0516,0,61.7668,23.3183,61.7668,62.3005s-21.7152,62.3024-61.7668,62.3024ZM1343.8014,109.1156c25.9888,0,39.6945-16.7313,39.6945-44.5017s-13.5291-44.4998-39.6945-44.4998h-20.6478v89.0015h20.6478Z" style="fill: #fff;"/>
  <path d="M1519.7619,126.9163h-22.2509V2.3134h22.2509v124.6029Z" style="fill: #fff;"/>
  <path d="M1592.5658,126.9163h-43.2577V2.3134h43.2577c40.0496,0,61.7648,23.3183,61.7648,62.3005s-21.7152,62.3024-61.7648,62.3024ZM1591.8516,109.1156c25.9907,0,39.6945-16.7313,39.6945-44.5017s-13.5271-44.4998-39.6945-44.4998h-20.6478v89.0015h20.6478Z" style="fill: #fff;"/>
  <path d="M1754.5419,72.2682h-55.0032v36.8474h59.9871v17.8007h-82.0594V2.3134h80.8154v17.8007h-58.7431v34.532h55.0032v17.6221Z" style="fill: #fff;"/>
  <path d="M1859.0248,95.9436h-53.9358l-11.5708,30.9727h-22.2509l49.309-124.6029h24.7428l48.7714,124.6029h-23.4949l-11.5708-30.9727ZM1853.3287,79.0338l-21.1835-56.7848h-.1766l-21.1835,56.7848h42.5435Z" style="fill: #fff;"/>
  <path d="M1996.9724,37.7362h-22.4294c-1.6011-13.8842-10.68-20.4712-23.852-20.4712-12.9934,0-22.9612,6.7655-22.9612,16.9118,0,10.68,9.4341,14.4179,21.8938,17.7987l14.2394,3.9165c18.513,4.9839,36.1351,12.1046,36.1351,35.0677,0,25.9888-22.7846,38.0933-47.8825,38.0933-30.2604,0-48.7734-14.5965-50.0193-41.119h22.606c2.3134,16.0191,11.3923,23.6734,28.3041,23.6734,14.9516,0,24.3857-6.7636,24.3857-17.9773,0-10.1463-7.1207-14.2413-21.1835-18.1578l-15.8425-4.2716c-18.8681-5.1624-35.0677-12.4597-35.0677-35.0677,0-23.3183,21.1835-36.1331,45.5692-36.1331,27.5919,0,45.0354,13.8842,46.1048,37.7362Z" style="fill: #fff;"/>
  <path d="M103.4214,216.0866h-40.5853v106.6256h-22.0723v-106.6256H0v-17.9773h103.4214v17.9773Z" style="fill: #fff;"/>
  <path d="M148.9827,322.7122l-34.8872-124.6029h22.2509l26.3439,100.3938h.1766l26.701-100.3938h25.6336l26.3439,100.3938h.3571l26.3439-100.3938h21.0049l-34.8891,124.6029h-25.4551l-26.8796-100.7509h-.1766l-27.0582,100.7509h-25.8102Z" style="fill: #fff;"/>
  <path d="M383.5862,268.0641h-55.0032v36.8474h59.9871v17.8007h-82.0614v-124.6029h80.8154v17.8007h-58.7411v34.532h55.0032v17.6221Z" style="fill: #fff;"/>
  <path d="M411.8844,198.1093h29.5481l54.8247,99.6815h.1786v-99.6815h20.2926v124.6029h-29.5481l-54.8266-99.6815h-.1766v99.6815h-20.2926v-124.6029Z" style="fill: #fff;"/>
  <path d="M637.5875,216.0866h-40.5853v106.6256h-22.0723v-106.6256h-40.7638v-17.9773h103.4214v17.9773Z" style="fill: #fff;"/>
  <path d="M671.2248,198.1093l33.8217,57.4951h.1766l33.286-57.4951h23.4988l-46.8171,76.3633v48.2397h-21.8938v-48.2397l-46.6366-76.3633h24.5643Z" style="fill: #fff;"/>
  <path d="M759.6906,267.3519h55.0032v16.5547h-55.0032v-16.5547Z" style="fill: #fff;"/>
  <path d="M913.4826,269.1335h-51.6204v53.5787h-22.0743v-124.6029h77.2541v17.8007h-55.1798v35.5994h51.6204v17.6241Z" style="fill: #fff;"/>
  <path d="M989.8419,324.849c-37.7362,0-58.0289-26.5225-58.0289-64.4392,0-38.0914,20.8263-64.6139,58.0289-64.6139,37.9167,0,58.0308,26.5225,58.0308,64.6139,0,37.9167-20.8263,64.4392-58.0308,64.4392ZM1024.9096,260.4097c0-26.6991-11.2137-46.8151-35.0677-46.8151s-35.0657,20.116-35.0657,46.8151c0,26.5244,11.2137,46.6385,35.0657,46.6385s35.0677-20.1141,35.0677-46.6385Z" style="fill: #fff;"/>
  <path d="M1171.4004,198.1093v77.0755c0,30.9727-17.6202,49.6642-50.9082,49.6642-33.8217,0-51.2653-18.3344-51.2653-49.4856v-77.2541h22.4275v76.897c0,18.513,8.5452,31.8635,28.6593,31.8635,20.4712,0,29.193-13.5291,29.193-32.0401v-76.7204h21.8938Z" style="fill: #fff;"/>
  <path d="M1268.7626,289.069c-3.0256-13.5271-11.926-18.3344-26.8776-18.3344h-21.0029v51.9776h-21.7172v-124.6029h51.4439c25.6317,0,43.6109,8.9003,43.6109,33.8198,0,14.9536-10.3249,27.2348-26.701,30.6175v.1786c13.5271,1.4245,19.5784,9.4341,22.4275,22.2509l8.9003,37.7362h-22.7846l-7.2992-33.6432ZM1246.6923,253.8247c14.9516,0,25.2765-6.2299,25.2765-19.5804,0-14.2413-10.682-18.8681-25.2765-18.8681h-25.8102v38.4485h25.8102Z" style="fill: #fff;"/>
  <path d="M1475.4446,322.7122v-54.4695h-56.7848v54.4695h-22.2509v-124.6029h22.2509v51.9776h56.7848v-51.9776h22.2489v124.6029h-22.2489Z" style="fill: #fff;"/>
  <path d="M1578.8581,324.849c-37.7382,0-58.0289-26.5225-58.0289-64.4392,0-38.0914,20.8263-64.6139,58.0289-64.6139,37.9128,0,58.0289,26.5225,58.0289,64.6139,0,37.9167-20.8263,64.4392-58.0289,64.4392ZM1613.9239,260.4097c0-26.6991-11.2137-46.8151-35.0657-46.8151s-35.0677,20.116-35.0677,46.8151c0,26.5244,11.2157,46.6385,35.0677,46.6385s35.0657-20.1141,35.0657-46.6385Z" style="fill: #fff;"/>
  <path d="M1760.4166,198.1093v77.0755c0,30.9727-17.6241,49.6642-50.9101,49.6642-33.8198,0-51.2653-18.3344-51.2653-49.4856v-77.2541h22.4294v76.897c0,18.513,8.5432,31.8635,28.6593,31.8635,20.4692,0,29.191-13.5291,29.191-32.0401v-76.7204h21.8957Z" style="fill: #fff;"/>
  <path d="M1857.7789,289.069c-3.0256-13.5271-11.926-18.3344-26.8776-18.3344h-21.0049v51.9776h-21.7172v-124.6029h51.4439c25.6317,0,43.6109,8.9003,43.6109,33.8198,0,14.9536-10.3229,27.2348-26.701,30.6175v.1786c13.5291,1.4245,19.5804,9.4341,22.4294,22.2509l8.9003,37.7362h-22.7846l-7.2992-33.6432ZM1835.7066,253.8247c14.9536,0,25.2765-6.2299,25.2765-19.5804,0-14.2413-10.68-18.8681-25.2765-18.8681h-25.8102v38.4485h25.8102Z" style="fill: #fff;"/>
  <path d="M1996.9744,233.5321h-22.4294c-1.6031-13.8842-10.68-20.4712-23.854-20.4712-12.9934,0-22.9612,6.7655-22.9612,16.9118,0,10.68,9.4341,14.4179,21.8938,17.7987l14.2413,3.9165c18.511,4.9839,36.1351,12.1046,36.1351,35.0677,0,25.9888-22.7846,38.0933-47.8845,38.0933-30.2604,0-48.7714-14.5965-50.0193-41.119h22.608c2.3134,16.0191,11.3923,23.6734,28.3022,23.6734,14.9516,0,24.3857-6.7636,24.3857-17.9773,0-10.1463-7.1187-14.2413-21.1815-18.1578l-15.8425-4.2716c-18.8701-5.1624-35.0657-12.4597-35.0657-35.0677,0-23.3183,21.1815-36.1331,45.5692-36.1331,27.5879,0,45.0335,13.8842,46.1029,37.7362Z" style="fill: #fff;"/>
</svg>