<?xml version="1.0" encoding="UTF-8"?>
<svg id="b" data-name="Layer 2" xmlns="http://www.w3.org/2000/svg" width="267.105" height="71.3027" viewBox="0 0 267.105 71.3027">
  <g id="c" data-name="Layer 2">
    <g id="d" data-name="Layer 1">
      <g>
        <path d="M0,12.0996C6.2007,8.5,11.2007,4.7988,14.7012,1.8984h13.2007v68.1055h-14.6011V16.9004c-3.7002,2.8008-8.1001,5.5-13.3008,8.2012v-13.002Z" style="fill: #fff;"/>
        <path d="M64.7021.6992c20.0015,0,27.8018,16,27.8018,35.2012,0,19.3027-8.1006,35.4023-28.002,35.4023-20.1011,0-27.8013-16.0996-27.8013-35.4023C36.7007,16.6992,44.7012.6992,64.7021.6992ZM64.6021,11.8008c-9.6006,0-13.0005,10.1992-13.0005,24.0996,0,14.9023,3.3999,24.3027,13.0005,24.3027,9.5005,0,13.001-9.4004,13.001-24.3027,0-13.9004-3.5005-24.0996-13.001-24.0996Z" style="fill: #fff;"/>
        <path d="M148.0034,20.5996l-19.501,22.1016,21.001,27.3027h-17.1011l-17.6011-23.502v23.502h-14.4009V0h14.4009v40.4023l16.7012-19.8027h16.501Z" style="fill: #fff;"/>
        <path d="M171.9014,58.9023h32.3018v11.1016h-50.103v-10.1016l24.8018-22.6016c5.8003-5.2988,10.3003-10.8008,10.3003-16.7012s-4-9.2988-9.5005-9.2988c-5.9004,0-10.2007,3.6992-10.5005,12.3008h-14.3008c.3999-14.2012,9.5005-22.9023,25.0015-22.9023,15.8008,0,23.8013,8.0996,23.8013,19.4004,0,10.3008-7.4004,17.6016-15.1011,24.4023l-16.7007,14.4004Z" style="fill: #fff;"/>
        <path d="M209.4014,43.502L237.2031,1.6992h20.2012v42.9023h9.7007v10.8008h-9.7007v14.6016h-14.1011v-14.6016h-33.9019v-11.9004ZM243.3032,12.8008l-21.1011,31.7012h21.1011V12.8008Z" style="fill: #fff;"/>
      </g>
    </g>
  </g>
</svg>