<?xml version="1.0" encoding="UTF-8"?>
<svg id="a" data-name="Layer 1" xmlns="http://www.w3.org/2000/svg" width="2000" height="2000" viewBox="0 0 2000 2000">
  <rect width="2000" height="2000" style="fill: #fff;"/>
  <g>
    <path d="M612.7922,866.0581c-53.9146,0-73.0103,57.2817-73.0103,135.343,0,83.6826,19.0957,136.4729,73.0103,136.4729,53.3499,0,73.0105-52.7903,73.0105-136.4729,0-78.0613-19.6606-135.343-73.0105-135.343Z"/>
    <polygon points="1616.335 1049.7 1616.335 871.6738 1497.8337 1049.7 1616.335 1049.7"/>
    <path d="M0,0v2000h2000V0H0ZM406.6929,1192.9128h-81.9988v-298.2166c-20.7795,15.7285-45.4856,30.8921-74.6941,46.0557v-73.0103c34.8242-20.22,62.9031-40.9995,82.5581-57.2874h74.1348v382.4585ZM612.2275,1200.2122c-112.8801,0-156.1226-90.417-156.1226-198.811,0-107.8291,44.926-197.6868,157.2466-197.6868s156.1282,89.8577,156.1282,197.6868c0,108.394-45.491,198.811-157.2522,198.811ZM993.5396,1192.9128l-98.8406-131.9758v131.9758h-80.8745v-393.125h80.8745v226.8899l93.7898-111.2021h92.6655l-109.5127,124.1172,117.9363,153.3201h-96.0383ZM1396.7556,1192.9128h-281.3638v-56.7224l139.2805-126.925c32.5703-29.7625,57.8413-60.6545,57.8413-93.7898s-22.4629-52.2253-53.3496-52.2253c-33.1353,0-57.2874,20.7795-58.9709,69.0781h-80.3098c2.2485-79.7502,53.3552-128.614,140.405-128.614,88.7334,0,133.6594,45.491,133.6594,108.9534,0,57.8469-41.5588,98.8462-84.8013,137.0322l-93.7898,80.8748h181.3989v62.3381ZM1750,1110.9194h-54.4795v81.9934h-79.1855v-81.9934h-190.3872v-66.8352l156.1279-234.7485h113.4448v240.9292h54.4795v60.6545Z"/>
  </g>
</svg>