<?xml version="1.0" encoding="UTF-8"?>
<svg id="a" data-name="Layer 1" xmlns="http://www.w3.org/2000/svg" width="2000" height="324.849" viewBox="0 0 2000 324.849">
  <path d="M106.7311,23.5075h-39.8483v101.573h-27.0338V23.5075H0V2.2805h106.7311v21.227Z" style="fill: #fff;"/>
  <path d="M202.0579,72.8031h-52.6635v31.2267h57.4033v21.0508h-84.2614V2.2805h82.6811v21.052h-55.8229v28.945h52.6635v20.5256Z" style="fill: #fff;"/>
  <path d="M227.8689,2.2805h35.9863l47.7481,92.6261h.1757V2.2805h24.5764v122.8h-35.8112l-47.7481-92.6261h-.3513v92.6261h-24.5758V2.2805Z" style="fill: #fff;"/>
  <path d="M516.0832,23.5075h-39.8483v101.573h-27.0338V23.5075h-39.849V2.2805h106.7311v21.227Z" style="fill: #fff;"/>
  <path d="M609.8309,125.0805v-51.9274h-50.7325v51.9274h-27.2094V2.2805h27.2094v49.4706h50.7325V2.2805h27.0338v122.8h-27.0338Z" style="fill: #fff;"/>
  <path d="M716.9196,127.361c-37.7423,0-58.983-25.4367-58.983-63.6799S679.7043,0,716.9196,0c37.9173,0,59.1586,25.4379,59.1586,63.6811s-21.9433,63.6799-59.1586,63.6799ZM748.1667,63.6811c0-25.613-10.3572-42.9805-31.2472-42.9805s-31.0715,17.3675-31.0715,42.9805,10.1815,42.9792,31.0715,42.9792,31.2472-17.3675,31.2472-42.9792Z" style="fill: #fff;"/>
  <path d="M900.5461,2.2805v74.7323c0,31.9281-18.0813,50.3483-52.3122,50.3483-34.7579,0-52.6635-18.2439-52.6635-50.172V2.2805h27.0338v74.2059c0,18.2452,7.5485,29.8239,25.4541,29.8239,18.2569,0,25.9804-11.5787,25.9804-29.8239V2.2805h26.5074Z" style="fill: #fff;"/>
  <path d="M1016.2372,38.4195h-27.2094c-1.0533-12.6315-9.3038-18.5952-20.8894-18.5952-11.4105,0-19.661,5.7887-19.661,14.2093,0,8.9469,7.7235,12.2801,19.3097,15.4371l15.4476,4.2109c18.959,5.0873,35.9869,12.4552,35.9869,35.4363,0,27.0158-24.2251,38.2432-49.8548,38.2432-31.0715,0-50.0299-14.0343-51.0832-41.4014h27.2094c1.7554,14.5606,10.1815,21.227,24.9271,21.227,13.1659,0,21.2407-5.7887,21.2407-15.262,0-8.2455-5.6174-11.7538-17.73-15.087l-17.5543-4.9123c-18.959-5.2624-35.1086-12.9815-35.1086-35.4363,0-23.3313,20.7137-36.4891,47.2211-36.4891,28.7892,0,47.0461,13.6842,47.7481,38.4195Z" style="fill: #fff;"/>
  <path d="M1113.6706,96.6607h-50.3812l-10.1815,28.4198h-27.0338l47.9238-122.8h30.8952l47.5731,122.8h-28.6141l-10.1815-28.4198ZM1107.1755,76.8377l-18.432-51.576h-.3513l-18.6076,51.576h37.391Z" style="fill: #fff;"/>
  <path d="M1167.043,2.2805h35.9863l47.7481,92.6261h.1757V2.2805h24.5764v122.8h-35.8112l-47.7481-92.6261h-.3513v92.6261h-24.5758V2.2805Z" style="fill: #fff;"/>
  <path d="M1349.0899,125.0805h-46.6948V2.2805h46.6948c39.8483,0,61.4404,22.8061,61.4404,61.4006s-21.592,61.3994-61.4404,61.3994ZM1347.5101,104.3799c23.1717,0,35.635-15.087,35.635-40.6987s-12.2876-40.7-35.635-40.7h-18.6083v81.3987h18.6083Z" style="fill: #fff;"/>
  <path d="M1516.0031,125.0805h-27.5601V2.2805h27.5601v122.8Z" style="fill: #fff;"/>
  <path d="M1589.5592,125.0805h-46.6948V2.2805h46.6948c39.8483,0,61.4404,22.8061,61.4404,61.4006s-21.592,61.3994-61.4404,61.3994ZM1587.9795,104.3799c23.1717,0,35.635-15.087,35.635-40.6987s-12.2876-40.7-35.635-40.7h-18.6083v81.3987h18.6083Z" style="fill: #fff;"/>
  <path d="M1751.4186,72.8031h-52.6635v31.2267h57.4033v21.0508h-84.2614V2.2805h82.6811v21.052h-55.8229v28.945h52.6635v20.5256Z" style="fill: #fff;"/>
  <path d="M1853.9395,96.6607h-50.3812l-10.1815,28.4198h-27.0338l47.9238-122.8h30.8952l47.5731,122.8h-28.6141l-10.1815-28.4198ZM1847.4444,76.8377l-18.432-51.576h-.3513l-18.6076,51.576h37.391Z" style="fill: #fff;"/>
  <path d="M1997.0156,38.4195h-27.2094c-1.0533-12.6315-9.3038-18.5952-20.8894-18.5952-11.4105,0-19.661,5.7887-19.661,14.2093,0,8.9469,7.7235,12.2801,19.3097,15.4371l15.4476,4.2109c18.959,5.0873,35.9869,12.4552,35.9869,35.4363,0,27.0158-24.2251,38.2432-49.8548,38.2432-31.0715,0-50.0299-14.0343-51.0832-41.4014h27.2094c1.7554,14.5606,10.1815,21.227,24.9271,21.227,13.1659,0,21.2407-5.7887,21.2407-15.262,0-8.2455-5.6174-11.7538-17.73-15.087l-17.5543-4.9123c-18.959-5.2624-35.1086-12.9815-35.1086-35.4363,0-23.3313,20.7143-36.4891,47.2211-36.4891,28.7892,0,47.0461,13.6842,47.7481,38.4195Z" style="fill: #fff;"/>
  <path d="M106.7311,209.1048h-39.8483v101.573h-27.0338v-101.573H0v-21.227h106.7311v21.227Z" style="fill: #fff;"/>
  <path d="M150.0952,310.6778l-33.5289-122.8h27.2094l22.9961,93.3275h.3513l23.5231-93.3275h30.0182l23.5231,93.3275h.3507l22.821-93.3275h25.6291l-33.1776,122.8h-30.7202l-23.8744-93.5038h-.1757l-24.0494,93.5038h-30.8958Z" style="fill: #fff;"/>
  <path d="M387.7924,258.4004h-52.6635v31.2267h57.4033v21.0508h-84.2614v-122.8h82.6811v21.052h-55.8229v28.945h52.6635v20.5256Z" style="fill: #fff;"/>
  <path d="M413.6034,187.8778h35.9863l47.7481,92.6261h.1757v-92.6261h24.5764v122.8h-35.8112l-47.7481-92.6261h-.3507v92.6261h-24.5764v-122.8Z" style="fill: #fff;"/>
  <path d="M644.8024,209.1048h-39.8483v101.573h-27.0338v-101.573h-39.849v-21.227h106.7311v21.227Z" style="fill: #fff;"/>
  <path d="M682.9022,187.8778l30.1932,54.2079h.1757l30.1938-54.2079h28.2628l-45.9928,77.0127v45.7873h-26.8581v-45.7873l-45.9928-77.0127h30.0182Z" style="fill: #fff;"/>
  <path d="M767.5211,254.0144h55.1209v19.823h-55.1209v-19.823Z" style="fill: #fff;"/>
  <path d="M922.531,259.4531h-50.0305v51.2247h-26.8581v-122.8h80.2237v21.052h-53.3656v29.8226h50.0305v20.7007Z" style="fill: #fff;"/>
  <path d="M997.8449,312.9583c-37.7423,0-58.983-25.4367-58.983-63.6799s21.7677-63.6811,58.983-63.6811c37.9173,0,59.1586,25.4379,59.1586,63.6811s-21.9433,63.6799-59.1586,63.6799ZM1029.0921,249.2784c0-25.613-10.3572-42.9805-31.2472-42.9805s-31.0715,17.3675-31.0715,42.9805,10.1815,42.9792,31.0715,42.9792,31.2472-17.3675,31.2472-42.9792Z" style="fill: #fff;"/>
  <path d="M1181.4714,187.8778v74.7323c0,31.9281-18.0813,50.3483-52.3122,50.3483-34.7579,0-52.6635-18.2439-52.6635-50.172v-74.9085h27.0338v74.2059c0,18.2452,7.5485,29.8239,25.4541,29.8239,18.2569,0,25.9804-11.5787,25.9804-29.8239v-74.2059h26.5074Z" style="fill: #fff;"/>
  <path d="M1276.4475,278.9248c-2.4574-12.2789-10.0058-17.3662-23.6981-17.3662h-19.486v49.1193h-26.5068v-122.8h53.8919c26.8587,0,44.9394,8.5968,44.9394,33.8585,0,14.5594-10.1815,26.3131-25.6291,29.8226v.175c13.5166,1.9292,19.661,9.4733,22.4697,22.6298l7.8992,36.314h-27.3851l-6.4951-31.753ZM1256.2602,241.9094c13.6922,0,22.6454-5.6137,22.6454-17.3662,0-12.1051-8.9531-16.6661-22.4697-16.6661h-23.1724v34.0323h22.9967Z" style="fill: #fff;"/>
  <path d="M1467.1955,310.6778v-51.9274h-50.7325v51.9274h-27.2094v-122.8h27.2094v49.4706h50.7325v-49.4706h27.0338v122.8h-27.0338Z" style="fill: #fff;"/>
  <path d="M1574.2841,312.9583c-37.7423,0-58.983-25.4367-58.983-63.6799s21.7677-63.6811,58.983-63.6811c37.9173,0,59.1586,25.4379,59.1586,63.6811s-21.9433,63.6799-59.1586,63.6799ZM1605.5313,249.2784c0-25.613-10.3572-42.9805-31.2472-42.9805s-31.0715,17.3675-31.0715,42.9805,10.1815,42.9792,31.0715,42.9792,31.2472-17.3675,31.2472-42.9792Z" style="fill: #fff;"/>
  <path d="M1757.9106,187.8778v74.7323c0,31.9281-18.0813,50.3483-52.3122,50.3483-34.7579,0-52.6635-18.2439-52.6635-50.172v-74.9085h27.0338v74.2059c0,18.2452,7.5485,29.8239,25.4541,29.8239,18.2569,0,25.9804-11.5787,25.9804-29.8239v-74.2059h26.5074Z" style="fill: #fff;"/>
  <path d="M1852.8874,278.9248c-2.4574-12.2789-10.0058-17.3662-23.6981-17.3662h-19.486v49.1193h-26.5068v-122.8h53.8919c26.8587,0,44.9394,8.5968,44.9394,33.8585,0,14.5594-10.1815,26.3131-25.6291,29.8226v.175c13.5166,1.9292,19.661,9.4733,22.4697,22.6298l7.8992,36.314h-27.3851l-6.4951-31.753ZM1832.7,241.9094c13.6922,0,22.6454-5.6137,22.6454-17.3662,0-12.1051-8.9531-16.6661-22.4697-16.6661h-23.1724v34.0323h22.9967Z" style="fill: #fff;"/>
  <path d="M1997.0156,224.0168h-27.2094c-1.0533-12.6315-9.3038-18.5952-20.8894-18.5952-11.4105,0-19.661,5.7887-19.661,14.2093,0,8.9469,7.7235,12.2801,19.3097,15.4371l15.4476,4.2109c18.959,5.0873,35.9869,12.4552,35.9869,35.4363,0,27.0158-24.2251,38.2432-49.8548,38.2432-31.0715,0-50.0299-14.0343-51.0832-41.4014h27.2094c1.7554,14.5606,10.1815,21.227,24.9271,21.227,13.1659,0,21.2407-5.7887,21.2407-15.262,0-8.2455-5.6174-11.7538-17.73-15.087l-17.5543-4.9123c-18.959-5.2624-35.1086-12.9815-35.1086-35.4363,0-23.3313,20.7143-36.4891,47.2211-36.4891,28.7892,0,47.0461,13.6842,47.7481,38.4195Z" style="fill: #fff;"/>
</svg>