<?xml version="1.0" encoding="UTF-8"?>
<svg id="a" data-name="Layer 1" xmlns="http://www.w3.org/2000/svg" width="2000" height="533.8993" viewBox="0 0 2000 533.8993">
  <path d="M0,91.6548C46.1524,64.8552,83.368,37.3142,109.4226,15.7262h98.2542v506.9098h-108.6775V127.3803c-27.541,20.8465-60.29,40.9444-98.9993,61.0423v-96.7678Z" style="fill: #fff;"/>
  <path d="M487.5388,6.793c148.8733,0,206.9318,119.0972,206.9318,262.0137,0,143.6653-60.2936,263.5038-208.4218,263.5038-149.6147,0-206.9281-119.8386-206.9281-263.5038,0-142.9166,59.5486-262.0137,208.4182-262.0137ZM486.7937,89.4233c-71.4583,0-96.7642,75.9213-96.7642,179.3835,0,110.9126,25.3059,180.8809,96.7642,180.8809,70.7133,0,96.7678-69.9682,96.7678-180.8809,0-103.4622-26.0545-179.3835-96.7678-179.3835Z" style="fill: #fff;"/>
  <path d="M1113.513,154.9213l-145.1481,164.5045,156.3127,203.2102h-127.2853l-131.0069-174.9205v174.9205h-107.1874V1.5887h107.1874v300.7194l124.3088-147.3868h122.8187Z" style="fill: #fff;"/>
  <path d="M1291.3919,440.013h240.4258v82.623h-372.9228v-75.1799l184.6024-168.2261c43.1723-39.4471,76.6663-80.3915,76.6663-124.3088s-29.7725-69.2195-70.7133-69.2195c-43.9173,0-75.9249,27.541-78.1564,91.5562h-106.4424c2.9765-105.701,70.7133-170.4648,186.0889-170.4648,117.6071,0,177.1557,60.2936,177.1557,144.4067,0,76.6699-55.082,131.0105-112.3991,181.6223l-124.3052,107.1911Z" style="fill: #fff;"/>
  <path d="M1570.5052,325.3789L1777.437,14.2434h150.3597v319.3272h72.2033v80.3915h-72.2033v108.6739h-104.956v-108.6739h-252.3355v-88.5833ZM1822.8407,96.8664l-157.0578,235.9556h157.0578V96.8664Z" style="fill: #fff;"/>
</svg>