<?xml version="1.0" encoding="UTF-8"?>
<svg id="a" data-name="Layer 1" xmlns="http://www.w3.org/2000/svg" width="2000" height="533.8993" viewBox="0 0 2000 533.8993">
  <path d="M0,90.6053C46.4324,63.6453,83.8708,35.9394,110.0777,14.2222h98.8461v509.9446h-109.3318V126.5447c-27.7059,20.9714-60.6473,41.1895-99.592,61.4077v-97.3471Z" style="fill: #fff;"/>
  <path d="M484.4689,5.2355c149.7682,0,208.1706,119.8102,208.1706,263.5824,0,144.5254-60.6546,265.0814-209.6696,265.0814-150.5067,0-208.1633-120.556-208.1633-265.0814,0-143.7722,59.9014-263.5824,209.6623-263.5824ZM483.7231,88.3605c-71.8861,0-97.3471,76.3758-97.3471,180.4575,0,111.5767,25.461,181.9638,97.3471,181.9638,71.133,0,97.3471-70.3871,97.3471-181.9638,0-104.0817-26.2142-180.4575-97.3471-180.4575Z" style="fill: #fff;"/>
  <path d="M1108.2057,154.2506l-146.0171,165.4894,157.2486,204.4268h-128.051l-131.7875-175.9678v175.9678h-107.8328V0h107.8328v302.5198l125.053-148.2692h123.554Z" style="fill: #fff;"/>
  <path d="M1287.1423,441.0492h241.8652v83.1176h-375.1517v-75.6299l185.7076-169.2332c43.4271-39.6832,77.1216-80.8728,77.1216-125.053s-29.9507-69.634-71.133-69.634c-44.1802,0-76.3831,27.7059-78.6279,92.1043h-107.0797c2.998-106.3338,71.1403-171.4854,187.2066-171.4854,118.3112,0,178.2126,60.6546,178.2126,145.2712,0,77.1289-55.4117,131.7948-113.0683,182.7096l-125.053,107.8328Z" style="fill: #fff;"/>
  <path d="M1567.9302,325.7287L1776.1008,12.7305h151.2599v321.239h72.6393v80.8728h-72.6393v109.3245h-105.5807v-109.3245h-253.8499v-89.1136ZM1821.7801,95.8481l-158.0017,237.3682h158.0017V95.8481Z" style="fill: #fff;"/>
</svg>